<svg xmlns="http://www.w3.org/2000/svg" xmlns:xlink="http://www.w3.org/1999/xlink" width="1840" height="711.3"><rect width="1840" height="711.3" rx="5" ry="5" class="a"/><svg y="0%" x="0%"><circle cx="20" cy="20" r="6" fill="#ff5f58"/><circle cx="40" cy="20" r="6" fill="#ffbd2e"/><circle cx="60" cy="20" r="6" fill="#18c132"/></svg><svg height="651.3" viewBox="0 0 180 65.13" width="1800" x="15" xmlns="http://www.w3.org/2000/svg" xmlns:xlink="http://www.w3.org/1999/xlink" y="50"><style>@keyframes k{0%{transform:translateX(0)}.08%{transform:translateX(-180px)}3.91%{transform:translateX(-360px)}4.18%{transform:translateX(-540px)}4.55%{transform:translateX(-720px)}4.94%{transform:translateX(-900px)}5.64%{transform:translateX(-1080px)}6.23%{transform:translateX(-1260px)}6.27%{transform:translateX(-1980px)}11.39%{transform:translateX(-2160px)}15.3%{transform:translateX(-2340px)}16.12%{transform:translateX(-2520px)}16.27%{transform:translateX(-2700px)}16.74%{transform:translateX(-2880px)}19.26%{transform:translateX(-3060px)}19.9%{transform:translateX(-3240px)}20.31%{transform:translateX(-3420px)}22.13%{transform:translateX(-3600px)}22.42%{transform:translateX(-3780px)}22.74%{transform:translateX(-3960px)}27.22%{transform:translateX(-4140px)}28.17%{transform:translateX(-4320px)}28.18%{transform:translateX(-4500px)}29.39%{transform:translateX(-4680px)}29.81%{transform:translateX(-4860px)}30.13%{transform:translateX(-5040px)}31.02%{transform:translateX(-5220px)}31.83%{transform:translateX(-5400px)}31.84%{transform:translateX(-5580px)}31.87%{transform:translateX(-5940px)}37.29%{transform:translateX(-6120px)}37.64%{transform:translateX(-6300px)}38.02%{transform:translateX(-6480px)}38.91%{transform:translateX(-6660px)}46.51%{transform:translateX(-6840px)}46.82%{transform:translateX(-7020px)}49.46%{transform:translateX(-7200px)}49.54%{transform:translateX(-7740px)}51.8%{transform:translateX(-7920px)}52.76%{transform:translateX(-8100px)}53.78%{transform:translateX(-8280px)}62%{transform:translateX(-8640px)}62.15%{transform:translateX(-9180px)}64.26%{transform:translateX(-9360px)}70.33%{transform:translateX(-9540px)}73.13%{transform:translateX(-9720px)}73.56%{transform:translateX(-9900px)}73.97%{transform:translateX(-10080px)}76.2%{transform:translateX(-10260px)}77.21%{transform:translateX(-10440px)}77.82%{transform:translateX(-10620px)}78.99%{transform:translateX(-10800px)}79.27%{transform:translateX(-10980px)}80.35%{transform:translateX(-11160px)}83.2%{transform:translateX(-11520px)}83.32%{transform:translateX(-11880px)}to{transform:translateX(-12060px)}}.a{fill:#282d35}.f,.g,.h{white-space:pre}.f{fill:#a8cc8c;font-weight:700}.g,.h{fill:#b9c0cb}.h{fill:#71bef2;font-weight:700}</style><g font-family="Monaco,Consolas,Menlo,'Bitstream Vera Sans Mono','Powerline Symbols',monospace" font-size="1.67"><defs><symbol id="1"><text y="1.67" class="f">jl@carbonX1</text><text x="11.022" y="1.67" class="g">:</text><text x="12.024" y="1.67" class="h">~/c/turran/github/flume-fuse/tmp</text><text x="44.088" y="1.67" class="g">$</text></symbol><symbol id="2"><text y="1.67" class="f">jl@carbonX1</text><text x="11.022" y="1.67" class="g">:</text><text x="12.024" y="1.67" class="h">~/c/turran/github/flume-fuse/tmp</text><text x="44.088" y="1.67" class="g">$</text><text x="46.092" y="1.67" class="g">l</text></symbol><symbol id="3"><text y="1.67" class="f">jl@carbonX1</text><text x="11.022" y="1.67" class="g">:</text><text x="12.024" y="1.67" class="h">~/c/turran/github/flume-fuse/tmp</text><text x="44.088" y="1.67" class="g">$</text><text x="46.092" y="1.67" class="g">ls</text></symbol><symbol id="4"><text y="1.67" class="f">jl@carbonX1</text><text x="11.022" y="1.67" class="g">:</text><text x="12.024" y="1.67" class="h">~/c/turran/github/flume-fuse/tmp</text><text x="44.088" y="1.67" class="g">$</text><text x="46.092" y="1.67" class="g">ls</text><text x="49.098" y="1.67" class="g">-l</text></symbol><symbol id="5"><text y="1.67" class="g">total</text><text x="6.012" y="1.67" class="g">0</text></symbol><symbol id="6"><text y="1.67" class="g">drwxr-xr-x</text><text x="11.022" y="1.67" class="g">2</text><text x="13.026" y="1.67" class="g">root</text><text x="18.036" y="1.67" class="g">root</text><text x="23.046" y="1.67" class="g">0</text><text x="25.05" y="1.67" class="g">ene</text><text x="30.06" y="1.67" class="g">1</text><text x="33.066" y="1.67" class="g">1970</text><text x="38.076" y="1.67" class="h">files</text></symbol><symbol id="7"><text y="1.67" class="g">drwxr-xr-x</text><text x="11.022" y="1.67" class="g">2</text><text x="13.026" y="1.67" class="g">root</text><text x="18.036" y="1.67" class="g">root</text><text x="23.046" y="1.67" class="g">0</text><text x="25.05" y="1.67" class="g">ene</text><text x="30.06" y="1.67" class="g">1</text><text x="33.066" y="1.67" class="g">1970</text><text x="38.076" y="1.67" class="h">search</text></symbol><symbol id="8"><text y="1.67" class="f">jl@carbonX1</text><text x="11.022" y="1.67" class="g">:</text><text x="12.024" y="1.67" class="h">~/c/turran/github/flume-fuse/tmp</text><text x="44.088" y="1.67" class="g">$</text><text x="46.092" y="1.67" class="g">ls</text><text x="49.098" y="1.67" class="g">s</text></symbol><symbol id="9"><text y="1.67" class="f">jl@carbonX1</text><text x="11.022" y="1.67" class="g">:</text><text x="12.024" y="1.67" class="h">~/c/turran/github/flume-fuse/tmp</text><text x="44.088" y="1.67" class="g">$</text><text x="46.092" y="1.67" class="g">ls</text><text x="49.098" y="1.67" class="g">sr</text></symbol><symbol id="10"><text y="1.67" class="f">jl@carbonX1</text><text x="11.022" y="1.67" class="g">:</text><text x="12.024" y="1.67" class="h">~/c/turran/github/flume-fuse/tmp</text><text x="44.088" y="1.67" class="g">$</text><text x="46.092" y="1.67" class="g">ls</text><text x="49.098" y="1.67" class="g">search/</text></symbol><symbol id="11"><text y="1.67" class="g">audio/</text><text x="10.02" y="1.67" class="g">field/</text><text x="20.04" y="1.67" class="g">results/</text><text x="30.06" y="1.67" class="g">stream/</text><text x="40.08" y="1.67" class="g">subtitle/</text><text x="50.1" y="1.67" class="g">video/</text></symbol><symbol id="12"><text y="1.67" class="f">jl@carbonX1</text><text x="11.022" y="1.67" class="g">:</text><text x="12.024" y="1.67" class="h">~/c/turran/github/flume-fuse/tmp</text><text x="44.088" y="1.67" class="g">$</text><text x="46.092" y="1.67" class="g">ls</text><text x="49.098" y="1.67" class="g">search/video/</text></symbol><symbol id="13"><text y="1.67" class="g">bitrate/</text><text x="17.034" y="1.67" class="g">framerate_denom/</text><text x="34.068" y="1.67" class="g">height/</text><text x="51.102" y="1.67" class="g">is_image/</text><text x="68.136" y="1.67" class="g">max_bitrate/</text><text x="85.17" y="1.67" class="g">par_denom/</text><text x="102.204" y="1.67" class="g">par_num/</text><text x="119.238" y="1.67" class="g">width/</text></symbol><symbol id="14"><text y="1.67" class="g">depth/</text><text x="17.034" y="1.67" class="g">framerate_num/</text><text x="34.068" y="1.67" class="g">info_id/</text><text x="51.102" y="1.67" class="g">is_interlaced/</text><text x="68.136" y="1.67" class="g">media_type/</text><text x="85.17" y="1.67" class="g">parent_id/</text><text x="102.204" y="1.67" class="g">type/</text></symbol><symbol id="15"><text y="1.67" class="f">jl@carbonX1</text><text x="11.022" y="1.67" class="g">:</text><text x="12.024" y="1.67" class="h">~/c/turran/github/flume-fuse/tmp</text><text x="44.088" y="1.67" class="g">$</text><text x="46.092" y="1.67" class="g">ls</text><text x="49.098" y="1.67" class="g">search/video/width/854/results/</text></symbol><symbol id="16"><text y="1.67" class="h">1</text></symbol><symbol id="17"><text y="1.67" class="f">jl@carbonX1</text><text x="11.022" y="1.67" class="g">:</text><text x="12.024" y="1.67" class="h">~/c/turran/github/flume-fuse/tmp</text><text x="44.088" y="1.67" class="g">$</text><text x="46.092" y="1.67" class="g">ls</text><text x="49.098" y="1.67" class="g">search/video/width/854/results/1/</text></symbol><symbol id="18"><text y="1.67" class="g">contents</text><text x="10.02" y="1.67" class="h">info</text><text x="16.032" y="1.67" class="g">mtime</text><text x="23.046" y="1.67" class="g">name</text><text x="29.058" y="1.67" class="g">path</text></symbol><symbol id="19"><text y="1.67" class="f">jl@carbonX1</text><text x="11.022" y="1.67" class="g">:</text><text x="12.024" y="1.67" class="h">~/c/turran/github/flume-fuse/tmp</text><text x="44.088" y="1.67" class="g">$</text><text x="46.092" y="1.67" class="g">ls</text><text x="49.098" y="1.67" class="g">search/video/width/854/results/1/name</text></symbol><symbol id="20"><text y="1.67" class="f">jl@carbonX1</text><text x="11.022" y="1.67" class="g">:</text><text x="12.024" y="1.67" class="h">~/c/turran/github/flume-fuse/tmp</text><text x="44.088" y="1.67" class="g">$</text><text x="46.092" y="1.67" class="g">cat</text><text x="50.1" y="1.67" class="g">search/video/width/854/results/1/name</text></symbol><symbol id="21"><text y="1.67" class="g">big-buck-bunny-480p-30sec.mp4</text><text x="29.058" y="1.67" class="f">jl@carbonX1</text><text x="40.08" y="1.67" class="g">:</text><text x="41.082" y="1.67" class="h">~/c/turran/github/flume-fuse/tmp</text><text x="73.146" y="1.67" class="g">$</text></symbol><symbol id="a"><path fill="transparent" d="M0 0h180v31H0z"/></symbol><symbol id="b"><path fill="#6f7683" d="M0 0h1.102v2.171H0z"/></symbol></defs><path class="a" d="M0 0h180v65.13H0z"/><g style="animation-duration:27.939007s;animation-iteration-count:infinite;animation-name:k;animation-timing-function:steps(1,end)"><svg width="12240"><svg><use xlink:href="#a"/><use xlink:href="#b" x="-.004"/></svg><svg x="180"><use xlink:href="#a"/><use xlink:href="#b" x="45.996"/><use xlink:href="#1"/></svg><svg x="360"><use xlink:href="#a"/><use xlink:href="#b" x="46.996"/><use xlink:href="#2"/></svg><svg x="540"><use xlink:href="#a"/><use xlink:href="#b" x="47.996"/><use xlink:href="#3"/></svg><svg x="720"><use xlink:href="#a"/><use xlink:href="#b" x="48.996"/><use xlink:href="#3"/></svg><svg x="900"><use xlink:href="#a"/><use xlink:href="#b" x="49.996"/><text y="1.67" class="f">jl@carbonX1</text><text x="11.022" y="1.67" class="g">:</text><text x="12.024" y="1.67" class="h">~/c/turran/github/flume-fuse/tmp</text><text x="44.088" y="1.67" class="g">$</text><text x="46.092" y="1.67" class="g">ls</text><text x="49.098" y="1.67" class="g">-</text></svg><svg x="1080"><use xlink:href="#a"/><use xlink:href="#b" x="50.996"/><use xlink:href="#4"/></svg><svg x="1260"><use xlink:href="#a"/><use xlink:href="#b" x="-.004" y="2.146"/><use xlink:href="#4"/></svg><svg x="1440"><use xlink:href="#a"/><use xlink:href="#b" x="-.004" y="4.317"/><use xlink:href="#4"/><use xlink:href="#5" y="2.171"/></svg><svg x="1620"><use xlink:href="#a"/><use xlink:href="#b" x="-.004" y="8.659"/><use xlink:href="#4"/><use xlink:href="#5" y="2.171"/><use xlink:href="#6" y="4.342"/><use xlink:href="#7" y="6.513"/></svg><svg x="1800"><use xlink:href="#a"/><use xlink:href="#b" x="-.004" y="8.659"/><use xlink:href="#4"/><use xlink:href="#5" y="2.171"/><use xlink:href="#6" y="4.342"/><use xlink:href="#7" y="6.513"/></svg><svg x="1980"><use xlink:href="#a"/><use xlink:href="#b" x="45.996" y="8.659"/><use xlink:href="#4"/><use xlink:href="#5" y="2.171"/><use xlink:href="#6" y="4.342"/><use xlink:href="#7" y="6.513"/><use xlink:href="#1" y="8.684"/></svg><svg x="2160"><use xlink:href="#a"/><use xlink:href="#b" x="46.996" y="8.659"/><use xlink:href="#4"/><use xlink:href="#5" y="2.171"/><use xlink:href="#6" y="4.342"/><use xlink:href="#7" y="6.513"/><text y="10.354" class="f">jl@carbonX1</text><text x="11.022" y="10.354" class="g">:</text><text x="12.024" y="10.354" class="h">~/c/turran/github/flume-fuse/tmp</text><text x="44.088" y="10.354" class="g">$</text><text x="46.092" y="10.354" class="g">c</text></svg><svg x="2340"><use xlink:href="#a"/><use xlink:href="#b" x="45.996" y="8.659"/><use xlink:href="#4"/><use xlink:href="#5" y="2.171"/><use xlink:href="#6" y="4.342"/><use xlink:href="#7" y="6.513"/><use xlink:href="#1" y="8.684"/></svg><svg x="2520"><use xlink:href="#a"/><use xlink:href="#b" x="46.996" y="8.659"/><use xlink:href="#4"/><use xlink:href="#5" y="2.171"/><use xlink:href="#6" y="4.342"/><use xlink:href="#7" y="6.513"/><use xlink:href="#2" y="8.684"/></svg><svg x="2700"><use xlink:href="#a"/><use xlink:href="#b" x="47.996" y="8.659"/><use xlink:href="#4"/><use xlink:href="#5" y="2.171"/><use xlink:href="#6" y="4.342"/><use xlink:href="#7" y="6.513"/><use xlink:href="#3" y="8.684"/></svg><svg x="2880"><use xlink:href="#a"/><use xlink:href="#b" x="48.996" y="8.659"/><use xlink:href="#4"/><use xlink:href="#5" y="2.171"/><use xlink:href="#6" y="4.342"/><use xlink:href="#7" y="6.513"/><use xlink:href="#3" y="8.684"/></svg><svg x="3060"><use xlink:href="#a"/><use xlink:href="#b" x="49.996" y="8.659"/><use xlink:href="#4"/><use xlink:href="#5" y="2.171"/><use xlink:href="#6" y="4.342"/><use xlink:href="#7" y="6.513"/><use xlink:href="#8" y="8.684"/></svg><svg x="3240"><use xlink:href="#a"/><use xlink:href="#b" x="50.996" y="8.659"/><use xlink:href="#4"/><use xlink:href="#5" y="2.171"/><use xlink:href="#6" y="4.342"/><use xlink:href="#7" y="6.513"/><use xlink:href="#9" y="8.684"/></svg><svg x="3420"><use xlink:href="#a"/><use xlink:href="#b" x="50.996" y="8.659"/><use xlink:href="#4"/><use xlink:href="#5" y="2.171"/><use xlink:href="#6" y="4.342"/><use xlink:href="#7" y="6.513"/><use xlink:href="#9" y="8.684"/></svg><svg x="3600"><use xlink:href="#a"/><use xlink:href="#b" x="49.996" y="8.659"/><use xlink:href="#4"/><use xlink:href="#5" y="2.171"/><use xlink:href="#6" y="4.342"/><use xlink:href="#7" y="6.513"/><use xlink:href="#8" y="8.684"/></svg><svg x="3780"><use xlink:href="#a"/><use xlink:href="#b" x="50.996" y="8.659"/><use xlink:href="#4"/><use xlink:href="#5" y="2.171"/><use xlink:href="#6" y="4.342"/><use xlink:href="#7" y="6.513"/><text y="10.354" class="f">jl@carbonX1</text><text x="11.022" y="10.354" class="g">:</text><text x="12.024" y="10.354" class="h">~/c/turran/github/flume-fuse/tmp</text><text x="44.088" y="10.354" class="g">$</text><text x="46.092" y="10.354" class="g">ls</text><text x="49.098" y="10.354" class="g">se</text></svg><svg x="3960"><use xlink:href="#a"/><use xlink:href="#b" x="55.996" y="8.659"/><use xlink:href="#4"/><use xlink:href="#5" y="2.171"/><use xlink:href="#6" y="4.342"/><use xlink:href="#7" y="6.513"/><use xlink:href="#10" y="8.684"/></svg><svg x="4140"><use xlink:href="#a"/><use xlink:href="#b" x="55.996" y="8.659"/><use xlink:href="#4"/><use xlink:href="#5" y="2.171"/><use xlink:href="#6" y="4.342"/><use xlink:href="#7" y="6.513"/><use xlink:href="#10" y="8.684"/></svg><svg x="4320"><use xlink:href="#a"/><use xlink:href="#b" x="-.004" y="10.83"/><use xlink:href="#4"/><use xlink:href="#5" y="2.171"/><use xlink:href="#6" y="4.342"/><use xlink:href="#7" y="6.513"/><use xlink:href="#10" y="8.684"/></svg><svg x="4500"><use xlink:href="#a"/><use xlink:href="#b" x="55.996" y="13.001"/><use xlink:href="#4"/><use xlink:href="#5" y="2.171"/><use xlink:href="#6" y="4.342"/><use xlink:href="#7" y="6.513"/><use xlink:href="#10" y="8.684"/><use xlink:href="#11" y="10.855"/><use xlink:href="#10" y="13.026"/></svg><svg x="4680"><use xlink:href="#a"/><use xlink:href="#b" x="56.996" y="13.001"/><use xlink:href="#4"/><use xlink:href="#5" y="2.171"/><use xlink:href="#6" y="4.342"/><use xlink:href="#7" y="6.513"/><use xlink:href="#10" y="8.684"/><use xlink:href="#11" y="10.855"/><text y="14.696" class="f">jl@carbonX1</text><text x="11.022" y="14.696" class="g">:</text><text x="12.024" y="14.696" class="h">~/c/turran/github/flume-fuse/tmp</text><text x="44.088" y="14.696" class="g">$</text><text x="46.092" y="14.696" class="g">ls</text><text x="49.098" y="14.696" class="g">search/v</text></svg><svg x="4860"><use xlink:href="#a"/><use xlink:href="#b" x="57.996" y="13.001"/><use xlink:href="#4"/><use xlink:href="#5" y="2.171"/><use xlink:href="#6" y="4.342"/><use xlink:href="#7" y="6.513"/><use xlink:href="#10" y="8.684"/><use xlink:href="#11" y="10.855"/><text y="14.696" class="f">jl@carbonX1</text><text x="11.022" y="14.696" class="g">:</text><text x="12.024" y="14.696" class="h">~/c/turran/github/flume-fuse/tmp</text><text x="44.088" y="14.696" class="g">$</text><text x="46.092" y="14.696" class="g">ls</text><text x="49.098" y="14.696" class="g">search/vi</text></svg><svg x="5040"><use xlink:href="#a"/><use xlink:href="#b" x="61.996" y="13.001"/><use xlink:href="#4"/><use xlink:href="#5" y="2.171"/><use xlink:href="#6" y="4.342"/><use xlink:href="#7" y="6.513"/><use xlink:href="#10" y="8.684"/><use xlink:href="#11" y="10.855"/><use xlink:href="#12" y="13.026"/></svg><svg x="5220"><use xlink:href="#a"/><use xlink:href="#b" x="61.996" y="13.001"/><use xlink:href="#4"/><use xlink:href="#5" y="2.171"/><use xlink:href="#6" y="4.342"/><use xlink:href="#7" y="6.513"/><use xlink:href="#10" y="8.684"/><use xlink:href="#11" y="10.855"/><use xlink:href="#12" y="13.026"/></svg><svg x="5400"><use xlink:href="#a"/><use xlink:href="#b" x="-.004" y="15.172"/><use xlink:href="#4"/><use xlink:href="#5" y="2.171"/><use xlink:href="#6" y="4.342"/><use xlink:href="#7" y="6.513"/><use xlink:href="#10" y="8.684"/><use xlink:href="#11" y="10.855"/><use xlink:href="#12" y="13.026"/></svg><svg x="5580"><use xlink:href="#a"/><use xlink:href="#b" x="-.004" y="17.343"/><use xlink:href="#4"/><use xlink:href="#5" y="2.171"/><use xlink:href="#6" y="4.342"/><use xlink:href="#7" y="6.513"/><use xlink:href="#10" y="8.684"/><use xlink:href="#11" y="10.855"/><use xlink:href="#12" y="13.026"/><use xlink:href="#13" y="15.197"/></svg><svg x="5760"><use xlink:href="#a"/><use xlink:href="#b" x="-.004" y="19.514"/><use xlink:href="#4"/><use xlink:href="#5" y="2.171"/><use xlink:href="#6" y="4.342"/><use xlink:href="#7" y="6.513"/><use xlink:href="#10" y="8.684"/><use xlink:href="#11" y="10.855"/><use xlink:href="#12" y="13.026"/><use xlink:href="#13" y="15.197"/><use xlink:href="#14" y="17.368"/></svg><svg x="5940"><use xlink:href="#a"/><use xlink:href="#b" x="61.996" y="19.514"/><use xlink:href="#4"/><use xlink:href="#5" y="2.171"/><use xlink:href="#6" y="4.342"/><use xlink:href="#7" y="6.513"/><use xlink:href="#10" y="8.684"/><use xlink:href="#11" y="10.855"/><use xlink:href="#12" y="13.026"/><use xlink:href="#13" y="15.197"/><use xlink:href="#14" y="17.368"/><use xlink:href="#12" y="19.539"/></svg><svg x="6120"><use xlink:href="#a"/><use xlink:href="#b" x="62.996" y="19.514"/><use xlink:href="#4"/><use xlink:href="#5" y="2.171"/><use xlink:href="#6" y="4.342"/><use xlink:href="#7" y="6.513"/><use xlink:href="#10" y="8.684"/><use xlink:href="#11" y="10.855"/><use xlink:href="#12" y="13.026"/><use xlink:href="#13" y="15.197"/><use xlink:href="#14" y="17.368"/><text y="21.209" class="f">jl@carbonX1</text><text x="11.022" y="21.209" class="g">:</text><text x="12.024" y="21.209" class="h">~/c/turran/github/flume-fuse/tmp</text><text x="44.088" y="21.209" class="g">$</text><text x="46.092" y="21.209" class="g">ls</text><text x="49.098" y="21.209" class="g">search/video/w</text></svg><svg x="6300"><use xlink:href="#a"/><use xlink:href="#b" x="63.996" y="19.514"/><use xlink:href="#4"/><use xlink:href="#5" y="2.171"/><use xlink:href="#6" y="4.342"/><use xlink:href="#7" y="6.513"/><use xlink:href="#10" y="8.684"/><use xlink:href="#11" y="10.855"/><use xlink:href="#12" y="13.026"/><use xlink:href="#13" y="15.197"/><use xlink:href="#14" y="17.368"/><text y="21.209" class="f">jl@carbonX1</text><text x="11.022" y="21.209" class="g">:</text><text x="12.024" y="21.209" class="h">~/c/turran/github/flume-fuse/tmp</text><text x="44.088" y="21.209" class="g">$</text><text x="46.092" y="21.209" class="g">ls</text><text x="49.098" y="21.209" class="g">search/video/wi</text></svg><svg x="6480"><use xlink:href="#a"/><use xlink:href="#b" x="67.996" y="19.514"/><use xlink:href="#4"/><use xlink:href="#5" y="2.171"/><use xlink:href="#6" y="4.342"/><use xlink:href="#7" y="6.513"/><use xlink:href="#10" y="8.684"/><use xlink:href="#11" y="10.855"/><use xlink:href="#12" y="13.026"/><use xlink:href="#13" y="15.197"/><use xlink:href="#14" y="17.368"/><text y="21.209" class="f">jl@carbonX1</text><text x="11.022" y="21.209" class="g">:</text><text x="12.024" y="21.209" class="h">~/c/turran/github/flume-fuse/tmp</text><text x="44.088" y="21.209" class="g">$</text><text x="46.092" y="21.209" class="g">ls</text><text x="49.098" y="21.209" class="g">search/video/width/</text></svg><svg x="6660"><use xlink:href="#a"/><use xlink:href="#b" x="71.996" y="19.514"/><use xlink:href="#4"/><use xlink:href="#5" y="2.171"/><use xlink:href="#6" y="4.342"/><use xlink:href="#7" y="6.513"/><use xlink:href="#10" y="8.684"/><use xlink:href="#11" y="10.855"/><use xlink:href="#12" y="13.026"/><use xlink:href="#13" y="15.197"/><use xlink:href="#14" y="17.368"/><text y="21.209" class="f">jl@carbonX1</text><text x="11.022" y="21.209" class="g">:</text><text x="12.024" y="21.209" class="h">~/c/turran/github/flume-fuse/tmp</text><text x="44.088" y="21.209" class="g">$</text><text x="46.092" y="21.209" class="g">ls</text><text x="49.098" y="21.209" class="g">search/video/width/854/</text></svg><svg x="6840"><use xlink:href="#a"/><use xlink:href="#b" x="72.996" y="19.514"/><use xlink:href="#4"/><use xlink:href="#5" y="2.171"/><use xlink:href="#6" y="4.342"/><use xlink:href="#7" y="6.513"/><use xlink:href="#10" y="8.684"/><use xlink:href="#11" y="10.855"/><use xlink:href="#12" y="13.026"/><use xlink:href="#13" y="15.197"/><use xlink:href="#14" y="17.368"/><text y="21.209" class="f">jl@carbonX1</text><text x="11.022" y="21.209" class="g">:</text><text x="12.024" y="21.209" class="h">~/c/turran/github/flume-fuse/tmp</text><text x="44.088" y="21.209" class="g">$</text><text x="46.092" y="21.209" class="g">ls</text><text x="49.098" y="21.209" class="g">search/video/width/854/r</text></svg><svg x="7020"><use xlink:href="#a"/><use xlink:href="#b" x="79.996" y="19.514"/><use xlink:href="#4"/><use xlink:href="#5" y="2.171"/><use xlink:href="#6" y="4.342"/><use xlink:href="#7" y="6.513"/><use xlink:href="#10" y="8.684"/><use xlink:href="#11" y="10.855"/><use xlink:href="#12" y="13.026"/><use xlink:href="#13" y="15.197"/><use xlink:href="#14" y="17.368"/><use xlink:href="#15" y="19.539"/></svg><svg x="7200"><use xlink:href="#a"/><use xlink:href="#b" x="-.004" y="21.685"/><use xlink:href="#4"/><use xlink:href="#5" y="2.171"/><use xlink:href="#6" y="4.342"/><use xlink:href="#7" y="6.513"/><use xlink:href="#10" y="8.684"/><use xlink:href="#11" y="10.855"/><use xlink:href="#12" y="13.026"/><use xlink:href="#13" y="15.197"/><use xlink:href="#14" y="17.368"/><use xlink:href="#15" y="19.539"/></svg><svg x="7380"><use xlink:href="#a"/><use xlink:href="#b" x="-.004" y="23.856"/><use xlink:href="#4"/><use xlink:href="#5" y="2.171"/><use xlink:href="#6" y="4.342"/><use xlink:href="#7" y="6.513"/><use xlink:href="#10" y="8.684"/><use xlink:href="#11" y="10.855"/><use xlink:href="#12" y="13.026"/><use xlink:href="#13" y="15.197"/><use xlink:href="#14" y="17.368"/><use xlink:href="#15" y="19.539"/><use xlink:href="#16" y="21.71"/></svg><svg x="7560"><use xlink:href="#a"/><use xlink:href="#b" x="-.004" y="23.856"/><use xlink:href="#4"/><use xlink:href="#5" y="2.171"/><use xlink:href="#6" y="4.342"/><use xlink:href="#7" y="6.513"/><use xlink:href="#10" y="8.684"/><use xlink:href="#11" y="10.855"/><use xlink:href="#12" y="13.026"/><use xlink:href="#13" y="15.197"/><use xlink:href="#14" y="17.368"/><use xlink:href="#15" y="19.539"/><use xlink:href="#16" y="21.71"/></svg><svg x="7740"><use xlink:href="#a"/><use xlink:href="#b" x="45.996" y="23.856"/><use xlink:href="#4"/><use xlink:href="#5" y="2.171"/><use xlink:href="#6" y="4.342"/><use xlink:href="#7" y="6.513"/><use xlink:href="#10" y="8.684"/><use xlink:href="#11" y="10.855"/><use xlink:href="#12" y="13.026"/><use xlink:href="#13" y="15.197"/><use xlink:href="#14" y="17.368"/><use xlink:href="#15" y="19.539"/><use xlink:href="#16" y="21.71"/><use xlink:href="#1" y="23.881"/></svg><svg x="7920"><use xlink:href="#a"/><use xlink:href="#b" x="79.996" y="23.856"/><use xlink:href="#4"/><use xlink:href="#5" y="2.171"/><use xlink:href="#6" y="4.342"/><use xlink:href="#7" y="6.513"/><use xlink:href="#10" y="8.684"/><use xlink:href="#11" y="10.855"/><use xlink:href="#12" y="13.026"/><use xlink:href="#13" y="15.197"/><use xlink:href="#14" y="17.368"/><use xlink:href="#15" y="19.539"/><use xlink:href="#16" y="21.71"/><use xlink:href="#15" y="23.881"/></svg><svg x="8100"><use xlink:href="#a"/><use xlink:href="#b" x="80.996" y="23.856"/><use xlink:href="#4"/><use xlink:href="#5" y="2.171"/><use xlink:href="#6" y="4.342"/><use xlink:href="#7" y="6.513"/><use xlink:href="#10" y="8.684"/><use xlink:href="#11" y="10.855"/><use xlink:href="#12" y="13.026"/><use xlink:href="#13" y="15.197"/><use xlink:href="#14" y="17.368"/><use xlink:href="#15" y="19.539"/><use xlink:href="#16" y="21.71"/><text y="25.551" class="f">jl@carbonX1</text><text x="11.022" y="25.551" class="g">:</text><text x="12.024" y="25.551" class="h">~/c/turran/github/flume-fuse/tmp</text><text x="44.088" y="25.551" class="g">$</text><text x="46.092" y="25.551" class="g">ls</text><text x="49.098" y="25.551" class="g">search/video/width/854/results/1</text></svg><svg x="8280"><use xlink:href="#a"/><use xlink:href="#b" x="81.996" y="23.856"/><use xlink:href="#4"/><use xlink:href="#5" y="2.171"/><use xlink:href="#6" y="4.342"/><use xlink:href="#7" y="6.513"/><use xlink:href="#10" y="8.684"/><use xlink:href="#11" y="10.855"/><use xlink:href="#12" y="13.026"/><use xlink:href="#13" y="15.197"/><use xlink:href="#14" y="17.368"/><use xlink:href="#15" y="19.539"/><use xlink:href="#16" y="21.71"/><use xlink:href="#17" y="23.881"/></svg><svg x="8460"><use xlink:href="#a"/><use xlink:href="#b" x="-.004" y="26.027"/><use xlink:href="#4"/><use xlink:href="#5" y="2.171"/><use xlink:href="#6" y="4.342"/><use xlink:href="#7" y="6.513"/><use xlink:href="#10" y="8.684"/><use xlink:href="#11" y="10.855"/><use xlink:href="#12" y="13.026"/><use xlink:href="#13" y="15.197"/><use xlink:href="#14" y="17.368"/><use xlink:href="#15" y="19.539"/><use xlink:href="#16" y="21.71"/><use xlink:href="#17" y="23.881"/></svg><svg x="8640"><use xlink:href="#a"/><use xlink:href="#b" x="-.004" y="26.027"/><use xlink:href="#4"/><use xlink:href="#5" y="2.171"/><use xlink:href="#6" y="4.342"/><use xlink:href="#7" y="6.513"/><use xlink:href="#10" y="8.684"/><use xlink:href="#11" y="10.855"/><use xlink:href="#12" y="13.026"/><use xlink:href="#13" y="15.197"/><use xlink:href="#14" y="17.368"/><use xlink:href="#15" y="19.539"/><use xlink:href="#16" y="21.71"/><use xlink:href="#17" y="23.881"/></svg><svg x="8820"><use xlink:href="#a"/><use xlink:href="#b" x="-.004" y="28.198"/><use xlink:href="#4"/><use xlink:href="#5" y="2.171"/><use xlink:href="#6" y="4.342"/><use xlink:href="#7" y="6.513"/><use xlink:href="#10" y="8.684"/><use xlink:href="#11" y="10.855"/><use xlink:href="#12" y="13.026"/><use xlink:href="#13" y="15.197"/><use xlink:href="#14" y="17.368"/><use xlink:href="#15" y="19.539"/><use xlink:href="#16" y="21.71"/><use xlink:href="#17" y="23.881"/><use xlink:href="#18" y="26.052"/></svg><svg x="9000"><use xlink:href="#a"/><use xlink:href="#b" x="-.004" y="28.198"/><use xlink:href="#4"/><use xlink:href="#5" y="2.171"/><use xlink:href="#6" y="4.342"/><use xlink:href="#7" y="6.513"/><use xlink:href="#10" y="8.684"/><use xlink:href="#11" y="10.855"/><use xlink:href="#12" y="13.026"/><use xlink:href="#13" y="15.197"/><use xlink:href="#14" y="17.368"/><use xlink:href="#15" y="19.539"/><use xlink:href="#16" y="21.71"/><use xlink:href="#17" y="23.881"/><use xlink:href="#18" y="26.052"/></svg><svg x="9180"><use xlink:href="#a"/><use xlink:href="#b" x="45.996" y="28.198"/><use xlink:href="#4"/><use xlink:href="#5" y="2.171"/><use xlink:href="#6" y="4.342"/><use xlink:href="#7" y="6.513"/><use xlink:href="#10" y="8.684"/><use xlink:href="#11" y="10.855"/><use xlink:href="#12" y="13.026"/><use xlink:href="#13" y="15.197"/><use xlink:href="#14" y="17.368"/><use xlink:href="#15" y="19.539"/><use xlink:href="#16" y="21.71"/><use xlink:href="#17" y="23.881"/><use xlink:href="#18" y="26.052"/><use xlink:href="#1" y="28.223"/></svg><svg x="9360"><use xlink:href="#a"/><use xlink:href="#b" x="81.996" y="28.198"/><use xlink:href="#4"/><use xlink:href="#5" y="2.171"/><use xlink:href="#6" y="4.342"/><use xlink:href="#7" y="6.513"/><use xlink:href="#10" y="8.684"/><use xlink:href="#11" y="10.855"/><use xlink:href="#12" y="13.026"/><use xlink:href="#13" y="15.197"/><use xlink:href="#14" y="17.368"/><use xlink:href="#15" y="19.539"/><use xlink:href="#16" y="21.71"/><use xlink:href="#17" y="23.881"/><use xlink:href="#18" y="26.052"/><use xlink:href="#17" y="28.223"/></svg><svg x="9540"><use xlink:href="#a"/><use xlink:href="#b" x="82.996" y="28.198"/><use xlink:href="#4"/><use xlink:href="#5" y="2.171"/><use xlink:href="#6" y="4.342"/><use xlink:href="#7" y="6.513"/><use xlink:href="#10" y="8.684"/><use xlink:href="#11" y="10.855"/><use xlink:href="#12" y="13.026"/><use xlink:href="#13" y="15.197"/><use xlink:href="#14" y="17.368"/><use xlink:href="#15" y="19.539"/><use xlink:href="#16" y="21.71"/><use xlink:href="#17" y="23.881"/><use xlink:href="#18" y="26.052"/><text y="29.893" class="f">jl@carbonX1</text><text x="11.022" y="29.893" class="g">:</text><text x="12.024" y="29.893" class="h">~/c/turran/github/flume-fuse/tmp</text><text x="44.088" y="29.893" class="g">$</text><text x="46.092" y="29.893" class="g">ls</text><text x="49.098" y="29.893" class="g">search/video/width/854/results/1/n</text></svg><svg x="9720"><use xlink:href="#a"/><use xlink:href="#b" x="83.996" y="28.198"/><use xlink:href="#4"/><use xlink:href="#5" y="2.171"/><use xlink:href="#6" y="4.342"/><use xlink:href="#7" y="6.513"/><use xlink:href="#10" y="8.684"/><use xlink:href="#11" y="10.855"/><use xlink:href="#12" y="13.026"/><use xlink:href="#13" y="15.197"/><use xlink:href="#14" y="17.368"/><use xlink:href="#15" y="19.539"/><use xlink:href="#16" y="21.71"/><use xlink:href="#17" y="23.881"/><use xlink:href="#18" y="26.052"/><text y="29.893" class="f">jl@carbonX1</text><text x="11.022" y="29.893" class="g">:</text><text x="12.024" y="29.893" class="h">~/c/turran/github/flume-fuse/tmp</text><text x="44.088" y="29.893" class="g">$</text><text x="46.092" y="29.893" class="g">ls</text><text x="49.098" y="29.893" class="g">search/video/width/854/results/1/na</text></svg><svg x="9900"><use xlink:href="#a"/><use xlink:href="#b" x="84.996" y="28.198"/><use xlink:href="#4"/><use xlink:href="#5" y="2.171"/><use xlink:href="#6" y="4.342"/><use xlink:href="#7" y="6.513"/><use xlink:href="#10" y="8.684"/><use xlink:href="#11" y="10.855"/><use xlink:href="#12" y="13.026"/><use xlink:href="#13" y="15.197"/><use xlink:href="#14" y="17.368"/><use xlink:href="#15" y="19.539"/><use xlink:href="#16" y="21.71"/><use xlink:href="#17" y="23.881"/><use xlink:href="#18" y="26.052"/><text y="29.893" class="f">jl@carbonX1</text><text x="11.022" y="29.893" class="g">:</text><text x="12.024" y="29.893" class="h">~/c/turran/github/flume-fuse/tmp</text><text x="44.088" y="29.893" class="g">$</text><text x="46.092" y="29.893" class="g">ls</text><text x="49.098" y="29.893" class="g">search/video/width/854/results/1/nam</text></svg><svg x="10080"><use xlink:href="#a"/><use xlink:href="#b" x="85.996" y="28.198"/><use xlink:href="#4"/><use xlink:href="#5" y="2.171"/><use xlink:href="#6" y="4.342"/><use xlink:href="#7" y="6.513"/><use xlink:href="#10" y="8.684"/><use xlink:href="#11" y="10.855"/><use xlink:href="#12" y="13.026"/><use xlink:href="#13" y="15.197"/><use xlink:href="#14" y="17.368"/><use xlink:href="#15" y="19.539"/><use xlink:href="#16" y="21.71"/><use xlink:href="#17" y="23.881"/><use xlink:href="#18" y="26.052"/><use xlink:href="#19" y="28.223"/></svg><svg x="10260"><use xlink:href="#a"/><use xlink:href="#b" x="45.996" y="28.198"/><use xlink:href="#4"/><use xlink:href="#5" y="2.171"/><use xlink:href="#6" y="4.342"/><use xlink:href="#7" y="6.513"/><use xlink:href="#10" y="8.684"/><use xlink:href="#11" y="10.855"/><use xlink:href="#12" y="13.026"/><use xlink:href="#13" y="15.197"/><use xlink:href="#14" y="17.368"/><use xlink:href="#15" y="19.539"/><use xlink:href="#16" y="21.71"/><use xlink:href="#17" y="23.881"/><use xlink:href="#18" y="26.052"/><use xlink:href="#19" y="28.223"/></svg><svg x="10440"><use xlink:href="#a"/><use xlink:href="#b" x="45.996" y="28.198"/><use xlink:href="#4"/><use xlink:href="#5" y="2.171"/><use xlink:href="#6" y="4.342"/><use xlink:href="#7" y="6.513"/><use xlink:href="#10" y="8.684"/><use xlink:href="#11" y="10.855"/><use xlink:href="#12" y="13.026"/><use xlink:href="#13" y="15.197"/><use xlink:href="#14" y="17.368"/><use xlink:href="#15" y="19.539"/><use xlink:href="#16" y="21.71"/><use xlink:href="#17" y="23.881"/><use xlink:href="#18" y="26.052"/><text y="29.893" class="f">jl@carbonX1</text><text x="11.022" y="29.893" class="g">:</text><text x="12.024" y="29.893" class="h">~/c/turran/github/flume-fuse/tmp</text><text x="44.088" y="29.893" class="g">$</text><text x="46.092" y="29.893" class="g">s</text><text x="48.096" y="29.893" class="g">search/video/width/854/results/1/name</text></svg><svg x="10620"><use xlink:href="#a"/><use xlink:href="#b" x="45.996" y="28.198"/><use xlink:href="#4"/><use xlink:href="#5" y="2.171"/><use xlink:href="#6" y="4.342"/><use xlink:href="#7" y="6.513"/><use xlink:href="#10" y="8.684"/><use xlink:href="#11" y="10.855"/><use xlink:href="#12" y="13.026"/><use xlink:href="#13" y="15.197"/><use xlink:href="#14" y="17.368"/><use xlink:href="#15" y="19.539"/><use xlink:href="#16" y="21.71"/><use xlink:href="#17" y="23.881"/><use xlink:href="#18" y="26.052"/><text y="29.893" class="f">jl@carbonX1</text><text x="11.022" y="29.893" class="g">:</text><text x="12.024" y="29.893" class="h">~/c/turran/github/flume-fuse/tmp</text><text x="44.088" y="29.893" class="g">$</text><text x="47.094" y="29.893" class="g">search/video/width/854/results/1/name</text></svg><svg x="10800"><use xlink:href="#a"/><use xlink:href="#b" x="46.996" y="28.198"/><use xlink:href="#4"/><use xlink:href="#5" y="2.171"/><use xlink:href="#6" y="4.342"/><use xlink:href="#7" y="6.513"/><use xlink:href="#10" y="8.684"/><use xlink:href="#11" y="10.855"/><use xlink:href="#12" y="13.026"/><use xlink:href="#13" y="15.197"/><use xlink:href="#14" y="17.368"/><use xlink:href="#15" y="19.539"/><use xlink:href="#16" y="21.71"/><use xlink:href="#17" y="23.881"/><use xlink:href="#18" y="26.052"/><text y="29.893" class="f">jl@carbonX1</text><text x="11.022" y="29.893" class="g">:</text><text x="12.024" y="29.893" class="h">~/c/turran/github/flume-fuse/tmp</text><text x="44.088" y="29.893" class="g">$</text><text x="46.092" y="29.893" class="g">c</text><text x="48.096" y="29.893" class="g">search/video/width/854/results/1/name</text></svg><svg x="10980"><use xlink:href="#a"/><use xlink:href="#b" x="47.996" y="28.198"/><use xlink:href="#4"/><use xlink:href="#5" y="2.171"/><use xlink:href="#6" y="4.342"/><use xlink:href="#7" y="6.513"/><use xlink:href="#10" y="8.684"/><use xlink:href="#11" y="10.855"/><use xlink:href="#12" y="13.026"/><use xlink:href="#13" y="15.197"/><use xlink:href="#14" y="17.368"/><use xlink:href="#15" y="19.539"/><use xlink:href="#16" y="21.71"/><use xlink:href="#17" y="23.881"/><use xlink:href="#18" y="26.052"/><text y="29.893" class="f">jl@carbonX1</text><text x="11.022" y="29.893" class="g">:</text><text x="12.024" y="29.893" class="h">~/c/turran/github/flume-fuse/tmp</text><text x="44.088" y="29.893" class="g">$</text><text x="46.092" y="29.893" class="g">ca</text><text x="49.098" y="29.893" class="g">search/video/width/854/results/1/name</text></svg><svg x="11160"><use xlink:href="#a"/><use xlink:href="#b" x="48.996" y="28.198"/><use xlink:href="#4"/><use xlink:href="#5" y="2.171"/><use xlink:href="#6" y="4.342"/><use xlink:href="#7" y="6.513"/><use xlink:href="#10" y="8.684"/><use xlink:href="#11" y="10.855"/><use xlink:href="#12" y="13.026"/><use xlink:href="#13" y="15.197"/><use xlink:href="#14" y="17.368"/><use xlink:href="#15" y="19.539"/><use xlink:href="#16" y="21.71"/><use xlink:href="#17" y="23.881"/><use xlink:href="#18" y="26.052"/><use xlink:href="#20" y="28.223"/></svg><svg x="11340"><use xlink:href="#a"/><use xlink:href="#b" x="-.004" y="30.369"/><use xlink:href="#4"/><use xlink:href="#5" y="2.171"/><use xlink:href="#6" y="4.342"/><use xlink:href="#7" y="6.513"/><use xlink:href="#10" y="8.684"/><use xlink:href="#11" y="10.855"/><use xlink:href="#12" y="13.026"/><use xlink:href="#13" y="15.197"/><use xlink:href="#14" y="17.368"/><use xlink:href="#15" y="19.539"/><use xlink:href="#16" y="21.71"/><use xlink:href="#17" y="23.881"/><use xlink:href="#18" y="26.052"/><use xlink:href="#20" y="28.223"/></svg><svg x="11520"><use xlink:href="#a"/><use xlink:href="#b" x="-.004" y="30.369"/><use xlink:href="#4"/><use xlink:href="#5" y="2.171"/><use xlink:href="#6" y="4.342"/><use xlink:href="#7" y="6.513"/><use xlink:href="#10" y="8.684"/><use xlink:href="#11" y="10.855"/><use xlink:href="#12" y="13.026"/><use xlink:href="#13" y="15.197"/><use xlink:href="#14" y="17.368"/><use xlink:href="#15" y="19.539"/><use xlink:href="#16" y="21.71"/><use xlink:href="#17" y="23.881"/><use xlink:href="#18" y="26.052"/><use xlink:href="#20" y="28.223"/></svg><svg x="11700"><use xlink:href="#a"/><use xlink:href="#b" x="28.996" y="30.369"/><use xlink:href="#4"/><use xlink:href="#5" y="2.171"/><use xlink:href="#6" y="4.342"/><use xlink:href="#7" y="6.513"/><use xlink:href="#10" y="8.684"/><use xlink:href="#11" y="10.855"/><use xlink:href="#12" y="13.026"/><use xlink:href="#13" y="15.197"/><use xlink:href="#14" y="17.368"/><use xlink:href="#15" y="19.539"/><use xlink:href="#16" y="21.71"/><use xlink:href="#17" y="23.881"/><use xlink:href="#18" y="26.052"/><use xlink:href="#20" y="28.223"/><text y="32.064" class="g">big-buck-bunny-480p-30sec.mp4</text></svg><svg x="11880"><use xlink:href="#a"/><use xlink:href="#b" x="74.996" y="30.369"/><use xlink:href="#4"/><use xlink:href="#5" y="2.171"/><use xlink:href="#6" y="4.342"/><use xlink:href="#7" y="6.513"/><use xlink:href="#10" y="8.684"/><use xlink:href="#11" y="10.855"/><use xlink:href="#12" y="13.026"/><use xlink:href="#13" y="15.197"/><use xlink:href="#14" y="17.368"/><use xlink:href="#15" y="19.539"/><use xlink:href="#16" y="21.71"/><use xlink:href="#17" y="23.881"/><use xlink:href="#18" y="26.052"/><use xlink:href="#20" y="28.223"/><use xlink:href="#21" y="30.394"/></svg><svg x="12060"><use xlink:href="#a"/><use xlink:href="#b" x="-.004" y="34.711"/><use xlink:href="#4"/><use xlink:href="#5" y="2.171"/><use xlink:href="#6" y="4.342"/><use xlink:href="#7" y="6.513"/><use xlink:href="#10" y="8.684"/><use xlink:href="#11" y="10.855"/><use xlink:href="#12" y="13.026"/><use xlink:href="#13" y="15.197"/><use xlink:href="#14" y="17.368"/><use xlink:href="#15" y="19.539"/><use xlink:href="#16" y="21.71"/><use xlink:href="#17" y="23.881"/><use xlink:href="#18" y="26.052"/><use xlink:href="#20" y="28.223"/><use xlink:href="#21" y="30.394"/><text y="34.235" class="g">exit</text></svg></svg></g></g></svg></svg>